<svg width="5" height="6" viewBox="0 0 5 6" fill="none" xmlns="http://www.w3.org/2000/svg">
<path d="M4.75711 1.48928C4.75711 1.48928 4.36019 1.72374 4.13951 1.79022C4.02105 1.65401 3.86362 1.55747 3.68851 1.51366C3.5134 1.46984 3.32905 1.48086 3.16041 1.54523C2.99176 1.6096 2.84696 1.72421 2.74557 1.87356C2.64419 2.0229 2.59112 2.19979 2.59354 2.38028V2.57697C2.24788 2.58593 1.90538 2.50927 1.59652 2.35382C1.28767 2.19836 1.02206 1.96893 0.823339 1.68597C0.823339 1.68597 0.0365852 3.45617 1.80678 4.24292C1.40171 4.51788 0.919157 4.65576 0.429962 4.6363C2.20016 5.61974 4.36373 4.6363 4.36373 2.37438C4.36373 2.3197 4.35822 2.26502 4.348 2.21113C4.54862 2.01326 4.75711 1.48928 4.75711 1.48928Z" stroke="#2FB95D" stroke-width="0.295033" stroke-linecap="round" stroke-linejoin="round"/>
</svg>
