<svg width="11" height="11" viewBox="0 0 11 11" fill="none" xmlns="http://www.w3.org/2000/svg">
<g id="Group 101">
<path id="Ellipse 36" d="M5.11765 2.55883C5.11765 3.97203 4.29188 5.75736 2.87868 5.75736C1.46548 5.75736 0 3.97203 0 2.55883C0 1.14562 1.14562 0 2.55883 0C3.97203 0 5.11765 1.14562 5.11765 2.55883Z" fill="white"/>
<path id="Ellipse 37" d="M10.2353 2.55883C10.2353 3.97203 8.76985 5.75736 7.35665 5.75736C5.94345 5.75736 5.11768 3.97203 5.11768 2.55883C5.11768 1.14562 6.2633 0 7.6765 0C9.0897 0 10.2353 1.14562 10.2353 2.55883Z" fill="white"/>
<path id="Polygon 3" d="M5.1177 10.875L0.685687 4.39797L9.54972 4.39797L5.1177 10.875Z" fill="white"/>
<path id="Polygon 4" d="M5.1177 8.9559L0.685687 2.47888L9.54972 2.47888L5.1177 8.9559Z" fill="white"/>
</g>
</svg>
