<svg width="66" height="66" viewBox="0 0 66 66" fill="none" xmlns="http://www.w3.org/2000/svg">
<g filter="url(#filter0_d_650_24)">
<path d="M4.25 0.25H61.75V57.75H4.25V0.25Z" fill="white" stroke="black" stroke-width="0.5"/>
<path d="M4 0H62V6H4V0Z" fill="#FF5E5E"/>
<path d="M17.7145 38.179C20.4822 38.179 22.4126 36.2997 22.4126 33.6982C22.4126 31.1797 20.6612 29.3643 18.2834 29.3643C17.2223 29.3643 16.2827 29.7862 15.7969 30.3615H15.7202L16.0973 26.8906H21.7287V24.9091H14.1349L13.451 31.6591L15.5923 32.0107C16.0334 31.5249 16.8643 31.1989 17.6506 31.2053C19.0888 31.2116 20.1243 32.2727 20.1179 33.7557C20.1243 35.2195 19.1143 36.2614 17.7145 36.2614C16.532 36.2614 15.5795 35.5135 15.4964 34.4396H13.1953C13.2592 36.6129 15.1577 38.179 17.7145 38.179ZM29.9233 24.2955H27.897L23.6783 39.9688H25.7045L29.9233 24.2955ZM31.3743 38H40.3487V36.0185H34.647V35.929L36.9034 33.6342C39.4474 31.1925 40.1506 30.0036 40.1506 28.527C40.1506 26.3345 38.3672 24.7301 35.7337 24.7301C33.1385 24.7301 31.2976 26.3409 31.2976 28.8274H33.554C33.554 27.4915 34.3977 26.6541 35.7017 26.6541C36.9482 26.6541 37.875 27.4148 37.875 28.6484C37.875 29.7415 37.2102 30.5213 35.919 31.8317L31.3743 36.2869V38ZM47.3928 38.2493C50.5504 38.2557 52.4361 35.7628 52.4361 31.4673C52.4361 27.1974 50.5376 24.7301 47.3928 24.7301C44.2479 24.7301 42.3558 27.1911 42.3494 31.4673C42.3494 35.7564 44.2351 38.2493 47.3928 38.2493ZM47.3928 36.2486C45.7628 36.2486 44.7401 34.6122 44.7464 31.4673C44.7528 28.348 45.7692 26.7053 47.3928 26.7053C49.0227 26.7053 50.0391 28.348 50.0455 31.4673C50.0455 34.6122 49.0291 36.2486 47.3928 36.2486Z" fill="#454545"/>
</g>
<defs>
<filter id="filter0_d_650_24" x="0" y="0" width="66" height="66" filterUnits="userSpaceOnUse" color-interpolation-filters="sRGB">
<feFlood flood-opacity="0" result="BackgroundImageFix"/>
<feColorMatrix in="SourceAlpha" type="matrix" values="0 0 0 0 0 0 0 0 0 0 0 0 0 0 0 0 0 0 127 0" result="hardAlpha"/>
<feOffset dy="4"/>
<feGaussianBlur stdDeviation="2"/>
<feComposite in2="hardAlpha" operator="out"/>
<feColorMatrix type="matrix" values="0 0 0 0 0 0 0 0 0 0 0 0 0 0 0 0 0 0 0.25 0"/>
<feBlend mode="normal" in2="BackgroundImageFix" result="effect1_dropShadow_650_24"/>
<feBlend mode="normal" in="SourceGraphic" in2="effect1_dropShadow_650_24" result="shape"/>
</filter>
</defs>
</svg>
