<svg width="14" height="18" viewBox="0 0 14 18" fill="none" xmlns="http://www.w3.org/2000/svg">
<path fill-rule="evenodd" clip-rule="evenodd" d="M0 6.87C0 3.09 3.1179 0 7 0C10.8821 0 14 3.06 14 6.87C14 10.68 7 18 7 18C7 18 0 10.65 0 6.87ZM3.9738 13.47C5.16594 15.06 6.35808 16.41 7 17.1C7.64192 16.41 8.83406 15.06 10.0262 13.5C12.2271 10.59 13.3886 8.28 13.3886 6.87C13.3886 3.42 10.5153 0.57 7 0.57C3.48472 0.57 0.611354 3.39 0.611354 6.84C0.611354 8.28 1.77293 10.56 3.9738 13.47Z" fill="black"/>
<path fill-rule="evenodd" clip-rule="evenodd" d="M4 6C4 4.33333 5.33333 3 7 3C8.66667 3 10 4.36111 10 6C10 7.66667 8.66667 9 7 9C5.33333 9 4 7.66667 4 6ZM7 8.47222C7.66667 8.47222 8.27778 8.19444 8.72222 7.75C9.16667 7.30556 9.44444 6.69444 9.44444 6.02778C9.44444 5.36111 9.16667 4.75 8.72222 4.30556C8.27778 3.86111 7.66667 3.58333 7 3.58333C6.33333 3.58333 5.72222 3.86111 5.27778 4.30556C4.83333 4.75 4.55556 5.36111 4.55556 6.02778C4.55556 6.69444 4.83333 7.30556 5.27778 7.75C5.72222 8.19444 6.33333 8.47222 7 8.47222Z" fill="black"/>
</svg>
