<svg width="6" height="6" viewBox="0 0 6 6" fill="none" xmlns="http://www.w3.org/2000/svg">
<g id="ig">
<g id="Group">
<path id="Vector" d="M2.75511 4.04372C2.96377 4.04372 3.16388 3.96083 3.31143 3.81329C3.45897 3.66574 3.54186 3.46563 3.54186 3.25697C3.54186 3.04831 3.45897 2.84819 3.31143 2.70065C3.16388 2.5531 2.96377 2.47021 2.75511 2.47021C2.54645 2.47021 2.34633 2.5531 2.19879 2.70065C2.05124 2.84819 1.96835 3.04831 1.96835 3.25697C1.96835 3.46563 2.05124 3.66574 2.19879 3.81329C2.34633 3.96083 2.54645 4.04372 2.75511 4.04372V4.04372Z" stroke="white" stroke-width="0.295033" stroke-linecap="round" stroke-linejoin="round"/>
<path id="Vector_2" d="M0.984894 4.04425V2.47075C0.984894 2.20992 1.08851 1.95978 1.27294 1.77535C1.45737 1.59092 1.70751 1.4873 1.96834 1.4873H3.54184C3.80267 1.4873 4.05281 1.59092 4.23724 1.77535C4.42167 1.95978 4.52529 2.20992 4.52529 2.47075V4.04425C4.52529 4.30508 4.42167 4.55522 4.23724 4.73965C4.05281 4.92408 3.80267 5.0277 3.54184 5.0277H1.96834C1.70751 5.0277 1.45737 4.92408 1.27294 4.73965C1.08851 4.55522 0.984894 4.30508 0.984894 4.04425Z" stroke="white" stroke-width="0.295033"/>
<path id="Vector_3" d="M3.83688 2.17838L3.83969 2.17529" stroke="white" stroke-width="0.295033" stroke-linecap="round" stroke-linejoin="round"/>
</g>
</g>
</svg>
