<svg width="6" height="6" viewBox="0 0 6 6" fill="none" xmlns="http://www.w3.org/2000/svg">
<g id="yt">
<g id="Group">
<path id="Vector" d="M3.47161 3.25666L2.7832 3.65004V2.86328L3.47161 3.25666Z" fill="white" stroke="white" stroke-width="0.295033" stroke-linecap="round" stroke-linejoin="round"/>
<path id="Vector_2" d="M1.11136 3.3959V3.11758C1.11136 2.54817 1.11136 2.26337 1.28936 2.08025C1.46756 1.89694 1.74804 1.88907 2.3088 1.87314C2.57433 1.86566 2.84576 1.86035 3.07824 1.86035C3.31053 1.86035 3.58196 1.86566 3.84769 1.87314C4.40845 1.88907 4.68893 1.89694 4.86693 2.08025C5.04513 2.26337 5.04513 2.54837 5.04513 3.11758V3.3959C5.04513 3.96551 5.04513 4.25012 4.86712 4.43343C4.68893 4.61655 4.40864 4.62461 3.84769 4.64035C3.58216 4.64802 3.31073 4.65333 3.07824 4.65333C2.82171 4.65256 2.56521 4.64823 2.3088 4.64035C1.74804 4.62461 1.46756 4.61674 1.28936 4.43343C1.11136 4.25012 1.11136 3.96531 1.11136 3.3961V3.3959Z" stroke="white" stroke-width="0.295033"/>
</g>
</g>
</svg>
