<svg width="15" height="15" viewBox="0 0 15 15" fill="none" xmlns="http://www.w3.org/2000/svg">
<path fill-rule="evenodd" clip-rule="evenodd" d="M7.50011 0C11.6422 0 15 3.35783 15 7.5C15 11.6422 11.6422 15 7.50011 15C3.35783 15 0 11.6422 0 7.5C0 3.35783 3.35783 0 7.50011 0ZM13.8475 7.5C13.8475 11.0062 11.0056 13.8485 7.50011 13.8485C3.99443 13.8485 1.15274 11.0062 1.15274 7.5C1.15274 3.99379 3.99443 1.15145 7.50011 1.15145C11.0056 1.15145 13.8475 3.99379 13.8475 7.5ZM12.1149 7.50363C12.1149 7.18613 11.8608 6.92892 11.5476 6.92892H8.07578V3.46227V3.46216C8.07578 3.14359 7.81729 2.88521 7.49893 2.88521C7.18036 2.88521 6.92187 3.14359 6.92187 3.46216V7.50139C6.92187 7.82007 7.18036 8.07845 7.49893 8.07845H11.5479C11.8608 8.07845 12.1149 7.82114 12.1149 7.50363Z" fill="black"/>
</svg>
